<mxfile host="app.diagrams.net" modified="2024-07-03T15:25:17.963Z" agent="Mozilla/5.0 (Windows NT 10.0; Win64; x64) AppleWebKit/537.36 (KHTML, like Gecko) Chrome/126.0.0.0 Safari/537.36 Edg/126.0.0.0" etag="qIR2qelMP8G0rLytGUS1" version="24.6.3" type="github">
  <diagram name="Page-1" id="sKITD_88z1vJ94t6zKOO">
    <mxGraphModel dx="981" dy="1634" grid="1" gridSize="10" guides="1" tooltips="1" connect="1" arrows="1" fold="1" page="1" pageScale="1" pageWidth="850" pageHeight="1100" math="0" shadow="0">
      <root>
        <mxCell id="0" />
        <mxCell id="1" parent="0" />
        <mxCell id="syWPXiomNhrmmpA-TFZg-3" value="&lt;span style=&quot;color: rgb(51, 51, 51);&quot;&gt;&lt;b&gt;&lt;u&gt;0100 Generate Database Information&lt;/u&gt;&lt;/b&gt;&lt;/span&gt;&lt;div&gt;&lt;div&gt;&lt;font color=&quot;#333333&quot;&gt;01_delete_files.py&lt;/font&gt;&lt;/div&gt;&lt;div&gt;&lt;font color=&quot;#333333&quot;&gt;02_create_batch_file.py&lt;/font&gt;&lt;/div&gt;&lt;div&gt;&lt;font color=&quot;#333333&quot;&gt;03_execute_batch_file.py&lt;/font&gt;&lt;/div&gt;&lt;div&gt;&lt;font color=&quot;#333333&quot;&gt;04_insert_database_information.py&lt;/font&gt;&lt;/div&gt;&lt;/div&gt;" style="rounded=0;whiteSpace=wrap;html=1;fillColor=#f8cecc;strokeColor=#b85450;" parent="1" vertex="1">
          <mxGeometry x="155" y="120" width="260" height="100" as="geometry" />
        </mxCell>
        <mxCell id="syWPXiomNhrmmpA-TFZg-79" style="edgeStyle=orthogonalEdgeStyle;rounded=0;orthogonalLoop=1;jettySize=auto;html=1;strokeWidth=3;" parent="1" source="syWPXiomNhrmmpA-TFZg-4" target="syWPXiomNhrmmpA-TFZg-3" edge="1">
          <mxGeometry relative="1" as="geometry" />
        </mxCell>
        <mxCell id="syWPXiomNhrmmpA-TFZg-80" style="edgeStyle=orthogonalEdgeStyle;rounded=0;orthogonalLoop=1;jettySize=auto;html=1;strokeWidth=3;" parent="1" source="syWPXiomNhrmmpA-TFZg-4" target="syWPXiomNhrmmpA-TFZg-8" edge="1">
          <mxGeometry relative="1" as="geometry" />
        </mxCell>
        <mxCell id="HDIBJlZaWyo6-5FCZua_-1" style="edgeStyle=orthogonalEdgeStyle;rounded=0;orthogonalLoop=1;jettySize=auto;html=1;strokeWidth=3;" parent="1" source="syWPXiomNhrmmpA-TFZg-4" target="syWPXiomNhrmmpA-TFZg-15" edge="1">
          <mxGeometry relative="1" as="geometry">
            <Array as="points">
              <mxPoint x="87" y="45" />
            </Array>
          </mxGeometry>
        </mxCell>
        <mxCell id="syWPXiomNhrmmpA-TFZg-4" value="&lt;span style=&quot;color: rgb(51, 51, 51);&quot;&gt;&lt;b&gt;Input Data Into Information Database&lt;/b&gt;&lt;/span&gt;" style="rounded=0;whiteSpace=wrap;html=1;points=[[0,0,0,0,0],[0,0.25,0,0,0],[0,0.5,0,0,0],[0,0.75,0,0,0],[0,1,0,0,0],[0.25,0,0,0,0],[0.25,1,0,0,0],[0.5,0,0,0,0],[0.5,1,0,0,0],[0.75,0,0,0,0],[0.75,1,0,0,0],[1,0,0,0,0],[1,0.25,0,0,0],[1,0.5,0,0,0],[1,0.75,0,0,0],[1,1,0,0,0]];fillColor=#f5f5f5;fontColor=#333333;strokeColor=#666666;" parent="1" vertex="1">
          <mxGeometry x="345" y="27.5" width="225" height="35" as="geometry" />
        </mxCell>
        <mxCell id="syWPXiomNhrmmpA-TFZg-5" value="&lt;span style=&quot;color: rgb(51, 51, 51);&quot;&gt;&lt;b&gt;&lt;u&gt;0500 (A) Generate DDL Scripts (Build)&lt;/u&gt;&lt;/b&gt;&lt;/span&gt;&lt;div&gt;&lt;font color=&quot;#333333&quot;&gt;01_insert_ddl_scripts_batch_table&lt;/font&gt;&lt;br&gt;&lt;/div&gt;&lt;div&gt;&lt;span style=&quot;background-color: initial;&quot;&gt;&lt;font color=&quot;#333333&quot;&gt;02_export_vw_ddl_scripts_batch_filenames&lt;/font&gt;&lt;/span&gt;&lt;font color=&quot;#333333&quot;&gt;.py&lt;br&gt;&lt;/font&gt;&lt;/div&gt;&lt;div&gt;&lt;span style=&quot;background-color: initial;&quot;&gt;&lt;font color=&quot;#333333&quot;&gt;03_modify_ddl_scripts_batch_template&lt;/font&gt;&lt;/span&gt;&lt;font color=&quot;#333333&quot;&gt;.py&lt;br&gt;&lt;/font&gt;&lt;/div&gt;&lt;div&gt;&lt;span style=&quot;background-color: initial;&quot;&gt;&lt;font style=&quot;&quot; color=&quot;#333333&quot;&gt;04_generate_ddl_scripts_sub_batch_files&lt;/font&gt;&lt;/span&gt;&lt;font style=&quot;&quot; color=&quot;#333333&quot;&gt;.py&lt;/font&gt;&lt;/div&gt;&lt;div&gt;&lt;font style=&quot;&quot; color=&quot;#333333&quot;&gt;05_generate_ddl_scripts_master_batch_files.py&lt;/font&gt;&lt;/div&gt;" style="rounded=0;whiteSpace=wrap;html=1;fillColor=#f8cecc;strokeColor=#b85450;" parent="1" vertex="1">
          <mxGeometry x="120" y="390" width="291.25" height="100" as="geometry" />
        </mxCell>
        <mxCell id="syWPXiomNhrmmpA-TFZg-37" style="edgeStyle=orthogonalEdgeStyle;rounded=0;orthogonalLoop=1;jettySize=auto;html=1;strokeWidth=3;" parent="1" source="syWPXiomNhrmmpA-TFZg-6" target="syWPXiomNhrmmpA-TFZg-9" edge="1">
          <mxGeometry relative="1" as="geometry" />
        </mxCell>
        <mxCell id="syWPXiomNhrmmpA-TFZg-6" value="&lt;span style=&quot;color: rgb(51, 51, 51);&quot;&gt;&lt;b&gt;&lt;u&gt;0500 (B) Generate DDL Scripts (Execution)&lt;br&gt;&lt;/u&gt;&lt;/b&gt;&lt;/span&gt;&lt;div&gt;&lt;span style=&quot;background-color: initial;&quot;&gt;&lt;font color=&quot;#333333&quot;&gt;06_export_current_execution&lt;/font&gt;&lt;/span&gt;&lt;font color=&quot;#333333&quot;&gt;.py&lt;br&gt;&lt;/font&gt;07_execute_batch_file.py&lt;/div&gt;" style="rounded=0;whiteSpace=wrap;html=1;fillColor=#d5e8d4;strokeColor=#82b366;" parent="1" vertex="1">
          <mxGeometry x="127.5" y="550" width="295" height="70" as="geometry" />
        </mxCell>
        <mxCell id="syWPXiomNhrmmpA-TFZg-36" style="edgeStyle=orthogonalEdgeStyle;rounded=0;orthogonalLoop=1;jettySize=auto;html=1;strokeWidth=3;" parent="1" source="syWPXiomNhrmmpA-TFZg-7" target="syWPXiomNhrmmpA-TFZg-11" edge="1">
          <mxGeometry relative="1" as="geometry">
            <Array as="points">
              <mxPoint x="710" y="1160" />
            </Array>
          </mxGeometry>
        </mxCell>
        <mxCell id="syWPXiomNhrmmpA-TFZg-8" value="&lt;span style=&quot;color: rgb(51, 51, 51);&quot;&gt;&lt;b&gt;&lt;u&gt;0300 Deploy Set Babelfish Escape Hatches&lt;/u&gt;&lt;/b&gt;&lt;/span&gt;&lt;div&gt;&lt;div&gt;&lt;font color=&quot;#333333&quot;&gt;01_create_batch_file.py&lt;/font&gt;&lt;/div&gt;&lt;div&gt;&lt;font color=&quot;#333333&quot;&gt;02_execute_batch_file.py&lt;/font&gt;&lt;/div&gt;&lt;/div&gt;" style="rounded=0;whiteSpace=wrap;html=1;fillColor=#f8cecc;strokeColor=#b85450;" parent="1" vertex="1">
          <mxGeometry x="500" y="120" width="270" height="60" as="geometry" />
        </mxCell>
        <mxCell id="syWPXiomNhrmmpA-TFZg-38" style="edgeStyle=orthogonalEdgeStyle;rounded=0;orthogonalLoop=1;jettySize=auto;html=1;strokeWidth=3;" parent="1" source="syWPXiomNhrmmpA-TFZg-9" target="syWPXiomNhrmmpA-TFZg-10" edge="1">
          <mxGeometry relative="1" as="geometry" />
        </mxCell>
        <mxCell id="syWPXiomNhrmmpA-TFZg-9" value="&lt;span style=&quot;color: rgb(51, 51, 51);&quot;&gt;&lt;b&gt;&lt;u&gt;0600 Modify DDL Tables Scripts for Babelfish Compliance&lt;/u&gt;&lt;/b&gt;&lt;/span&gt;&lt;div&gt;&lt;font style=&quot;&quot; color=&quot;#333333&quot;&gt;01_save_folder_tables.py&lt;/font&gt;&lt;br&gt;&lt;/div&gt;&lt;div&gt;&lt;font style=&quot;&quot; color=&quot;#333333&quot;&gt;02_copy_rename_tablesfull&lt;br&gt;&lt;/font&gt;&lt;/div&gt;&lt;div&gt;&lt;font style=&quot;&quot; color=&quot;#333333&quot;&gt;03_create_table_elements.py&lt;br&gt;&lt;/font&gt;&lt;/div&gt;&lt;div&gt;&lt;font style=&quot;&quot; color=&quot;#333333&quot;&gt;04_modify_tables_babelfish_compliant.py&lt;/font&gt;&lt;/div&gt;" style="rounded=0;whiteSpace=wrap;html=1;fillColor=#f8cecc;strokeColor=#b85450;" parent="1" vertex="1">
          <mxGeometry x="297.5" y="975" width="340" height="80" as="geometry" />
        </mxCell>
        <mxCell id="syWPXiomNhrmmpA-TFZg-39" value="" style="edgeStyle=orthogonalEdgeStyle;rounded=0;orthogonalLoop=1;jettySize=auto;html=1;strokeWidth=3;" parent="1" source="syWPXiomNhrmmpA-TFZg-10" target="syWPXiomNhrmmpA-TFZg-11" edge="1">
          <mxGeometry relative="1" as="geometry" />
        </mxCell>
        <mxCell id="syWPXiomNhrmmpA-TFZg-10" value="&lt;span style=&quot;color: rgb(51, 51, 51);&quot;&gt;&lt;b&gt;&lt;u&gt;0700 Create Master SQLCMD files&lt;/u&gt;&lt;/b&gt;&lt;/span&gt;&lt;div&gt;&lt;font style=&quot;&quot; color=&quot;#333333&quot;&gt;05_create_deployment_tables_sqlcmd_mode.py&lt;/font&gt;&lt;br&gt;&lt;/div&gt;&lt;div&gt;06_create_deployment_tableelements_sqlcmd_mode.py&lt;br&gt;&lt;/div&gt;" style="rounded=0;whiteSpace=wrap;html=1;fillColor=#f8cecc;strokeColor=#b85450;" parent="1" vertex="1">
          <mxGeometry x="369.995" y="1100" width="323.75" height="50" as="geometry" />
        </mxCell>
        <mxCell id="syWPXiomNhrmmpA-TFZg-83" style="edgeStyle=orthogonalEdgeStyle;rounded=0;orthogonalLoop=1;jettySize=auto;html=1;strokeWidth=3;" parent="1" source="syWPXiomNhrmmpA-TFZg-11" target="syWPXiomNhrmmpA-TFZg-12" edge="1">
          <mxGeometry relative="1" as="geometry" />
        </mxCell>
        <mxCell id="syWPXiomNhrmmpA-TFZg-11" value="&lt;span style=&quot;color: rgb(51, 51, 51);&quot;&gt;&lt;b&gt;&lt;u&gt;0800 Deploy DDL Tables Build&lt;/u&gt;&lt;/b&gt;&lt;/span&gt;&lt;div&gt;&lt;font color=&quot;#333333&quot;&gt;01_download_target_login_information.py&lt;/font&gt;&lt;br&gt;&lt;/div&gt;&lt;div&gt;&lt;font color=&quot;#333333&quot;&gt;02_modify_batch_template.py&lt;br&gt;&lt;/font&gt;&lt;/div&gt;&lt;div&gt;&lt;font color=&quot;#333333&quot;&gt;03_create_master_sqlcmd_files.py&lt;/font&gt;&lt;/div&gt;&lt;div&gt;&lt;font color=&quot;#333333&quot;&gt;04_create_master_batch_files.py&lt;br&gt;&lt;/font&gt;&lt;/div&gt;&lt;div&gt;&lt;font color=&quot;#333333&quot;&gt;05_truncate_deploy_ddl_tables_batch.py&lt;br&gt;&lt;/font&gt;&lt;/div&gt;&lt;div&gt;&lt;font color=&quot;#333333&quot;&gt;06_insert_deploy_ddl_tables_batch.py&lt;br&gt;&lt;/font&gt;&lt;/div&gt;" style="rounded=0;whiteSpace=wrap;html=1;fillColor=#f8cecc;strokeColor=#b85450;" parent="1" vertex="1">
          <mxGeometry x="673.75" y="1245" width="240" height="110" as="geometry" />
        </mxCell>
        <mxCell id="syWPXiomNhrmmpA-TFZg-12" value="&lt;span style=&quot;color: rgb(51, 51, 51);&quot;&gt;&lt;b style=&quot;&quot;&gt;&lt;u style=&quot;&quot;&gt;&lt;font style=&quot;font-size: 12px;&quot;&gt;0900 Deploy DDL Tables Execution&lt;/font&gt;&lt;/u&gt;&lt;/b&gt;&lt;/span&gt;&lt;div style=&quot;&quot;&gt;&lt;font style=&quot;font-size: 12px;&quot; color=&quot;#333333&quot;&gt;07_execute_ddl_tables_batch_files.py&lt;/font&gt;&lt;br&gt;&lt;/div&gt;" style="rounded=0;whiteSpace=wrap;html=1;fillColor=#d5e8d4;strokeColor=#82b366;" parent="1" vertex="1">
          <mxGeometry x="550" y="1400" width="240" height="40" as="geometry" />
        </mxCell>
        <mxCell id="syWPXiomNhrmmpA-TFZg-13" value="&lt;span style=&quot;color: rgb(51, 51, 51);&quot;&gt;&lt;b&gt;&lt;u&gt;1000 Deploy DDL Table Elements Build&lt;/u&gt;&lt;/b&gt;&lt;/span&gt;&lt;div&gt;&lt;font style=&quot;&quot; color=&quot;#333333&quot;&gt;01_download_target_login_information.py&lt;/font&gt;&lt;br&gt;&lt;/div&gt;&lt;div&gt;&lt;font color=&quot;#333333&quot;&gt;02_modify_batch_template.py&lt;/font&gt;&lt;/div&gt;&lt;div&gt;&lt;font color=&quot;#333333&quot;&gt;03_create_master_batch_files.py&lt;br&gt;&lt;/font&gt;&lt;/div&gt;&lt;div&gt;&lt;font color=&quot;#333333&quot;&gt;04_truncate_deploy_ddl_tableelements_batch.py&lt;br&gt;&lt;/font&gt;&lt;/div&gt;&lt;div&gt;&lt;font color=&quot;#333333&quot;&gt;05_insert_deploy_ddl_tableelements_batch.py&lt;/font&gt;&lt;/div&gt;" style="rounded=0;whiteSpace=wrap;html=1;fillColor=#f8cecc;strokeColor=#b85450;" parent="1" vertex="1">
          <mxGeometry x="369.99" y="1250" width="280" height="100" as="geometry" />
        </mxCell>
        <mxCell id="syWPXiomNhrmmpA-TFZg-14" value="&lt;span style=&quot;color: rgb(51, 51, 51);&quot;&gt;&lt;b&gt;&lt;u&gt;1100 Deploy DDL Table Elements Execution&lt;/u&gt;&lt;/b&gt;&lt;/span&gt;&lt;div&gt;&lt;font color=&quot;#333333&quot;&gt;06_execute_ddl_tableelements_batch_files.py&lt;/font&gt;&lt;br&gt;&lt;/div&gt;" style="rounded=0;whiteSpace=wrap;html=1;fillColor=#d5e8d4;strokeColor=#82b366;" parent="1" vertex="1">
          <mxGeometry x="550" y="1575" width="310" height="40" as="geometry" />
        </mxCell>
        <mxCell id="syWPXiomNhrmmpA-TFZg-46" style="edgeStyle=orthogonalEdgeStyle;rounded=0;orthogonalLoop=1;jettySize=auto;html=1;entryX=0.5;entryY=0;entryDx=0;entryDy=0;strokeWidth=3;" parent="1" source="syWPXiomNhrmmpA-TFZg-15" target="syWPXiomNhrmmpA-TFZg-16" edge="1">
          <mxGeometry relative="1" as="geometry" />
        </mxCell>
        <mxCell id="syWPXiomNhrmmpA-TFZg-15" value="&lt;span style=&quot;color: rgb(51, 51, 51);&quot;&gt;&lt;b&gt;&lt;u&gt;1200 Generate DB Dependencies Build&lt;/u&gt;&lt;/b&gt;&lt;/span&gt;&lt;div&gt;&lt;font color=&quot;#333333&quot;&gt;01_insert_dd_dependencies_batch.py&lt;/font&gt;&lt;br&gt;&lt;/div&gt;" style="rounded=0;whiteSpace=wrap;html=1;fillColor=#f8cecc;strokeColor=#b85450;" parent="1" vertex="1">
          <mxGeometry x="90" y="1100" width="247.5" height="40" as="geometry" />
        </mxCell>
        <mxCell id="syWPXiomNhrmmpA-TFZg-86" style="edgeStyle=orthogonalEdgeStyle;rounded=0;orthogonalLoop=1;jettySize=auto;html=1;entryX=0.5;entryY=0;entryDx=0;entryDy=0;strokeWidth=3;" parent="1" source="syWPXiomNhrmmpA-TFZg-16" target="syWPXiomNhrmmpA-TFZg-17" edge="1">
          <mxGeometry relative="1" as="geometry" />
        </mxCell>
        <mxCell id="syWPXiomNhrmmpA-TFZg-16" value="&lt;span style=&quot;color: rgb(51, 51, 51);&quot;&gt;&lt;b&gt;&lt;u&gt;1300 Determine DB Dependencies&lt;/u&gt;&lt;/b&gt;&lt;/span&gt;&lt;div&gt;&lt;font color=&quot;#333333&quot;&gt;02_create_config_file.py&lt;/font&gt;&lt;br&gt;&lt;/div&gt;&lt;div&gt;&lt;font color=&quot;#333333&quot;&gt;determine_status.py&lt;br&gt;&lt;/font&gt;&lt;/div&gt;&lt;div&gt;&lt;font color=&quot;#333333&quot;&gt;03_create_batch_files.py&lt;/font&gt;&lt;/div&gt;&lt;div&gt;&lt;font color=&quot;#333333&quot;&gt;04_update_end_date.py&lt;br&gt;&lt;/font&gt;&lt;/div&gt;" style="rounded=0;whiteSpace=wrap;html=1;fillColor=#e1d5e7;strokeColor=#9673a6;" parent="1" vertex="1">
          <mxGeometry x="107.5" y="1170" width="212.5" height="90" as="geometry" />
        </mxCell>
        <mxCell id="rylidvbhO6okRbjTieRh-7" style="edgeStyle=orthogonalEdgeStyle;rounded=0;orthogonalLoop=1;jettySize=auto;html=1;strokeWidth=3;entryX=0;entryY=0.75;entryDx=0;entryDy=0;" parent="1" source="syWPXiomNhrmmpA-TFZg-17" target="syWPXiomNhrmmpA-TFZg-18" edge="1">
          <mxGeometry relative="1" as="geometry" />
        </mxCell>
        <mxCell id="syWPXiomNhrmmpA-TFZg-17" value="&lt;span style=&quot;color: rgb(51, 51, 51);&quot;&gt;&lt;b&gt;&lt;u&gt;1400 Deploy DB Dependencies Build&lt;/u&gt;&lt;/b&gt;&lt;/span&gt;&lt;div&gt;&lt;font color=&quot;#333333&quot;&gt;01_truncate_deploy_db_dependencies_batch.py&lt;/font&gt;&lt;br&gt;&lt;/div&gt;&lt;div&gt;&lt;font color=&quot;#333333&quot;&gt;02_insert_deploy_db_dependencies.py&lt;/font&gt;&lt;/div&gt;" style="rounded=0;whiteSpace=wrap;html=1;fillColor=#f8cecc;strokeColor=#b85450;" parent="1" vertex="1">
          <mxGeometry x="80" y="1290" width="267.5" height="60" as="geometry" />
        </mxCell>
        <mxCell id="syWPXiomNhrmmpA-TFZg-18" value="&lt;span style=&quot;color: rgb(51, 51, 51);&quot;&gt;&lt;b&gt;&lt;u&gt;1500 Deploy DB Dependencies Execution&lt;/u&gt;&lt;/b&gt;&lt;/span&gt;&lt;div&gt;&lt;font color=&quot;#333333&quot;&gt;03_execute_db_dependencies.py&lt;/font&gt;&lt;br&gt;&lt;/div&gt;" style="rounded=0;whiteSpace=wrap;html=1;fillColor=#d5e8d4;strokeColor=#82b366;" parent="1" vertex="1">
          <mxGeometry x="237.5" y="1670" width="252.5" height="40" as="geometry" />
        </mxCell>
        <mxCell id="syWPXiomNhrmmpA-TFZg-51" value="" style="endArrow=none;html=1;rounded=0;strokeWidth=2;shadow=1;" parent="1" edge="1">
          <mxGeometry width="50" height="50" relative="1" as="geometry">
            <mxPoint x="60" y="80" as="sourcePoint" />
            <mxPoint x="920" y="80" as="targetPoint" />
          </mxGeometry>
        </mxCell>
        <mxCell id="syWPXiomNhrmmpA-TFZg-57" style="edgeStyle=orthogonalEdgeStyle;rounded=0;orthogonalLoop=1;jettySize=auto;html=1;entryX=0.559;entryY=0.053;entryDx=0;entryDy=0;entryPerimeter=0;strokeWidth=3;" parent="1" source="syWPXiomNhrmmpA-TFZg-10" target="syWPXiomNhrmmpA-TFZg-13" edge="1">
          <mxGeometry relative="1" as="geometry" />
        </mxCell>
        <mxCell id="syWPXiomNhrmmpA-TFZg-59" value="&lt;h1 style=&quot;margin-top: 0px;&quot;&gt;&lt;font style=&quot;font-size: 42px;&quot; color=&quot;#ff3333&quot;&gt;DMS&lt;/font&gt;&lt;/h1&gt;" style="text;html=1;whiteSpace=wrap;overflow=hidden;rounded=0;" parent="1" vertex="1">
          <mxGeometry x="302.5" y="1470" width="120" height="50" as="geometry" />
        </mxCell>
        <mxCell id="syWPXiomNhrmmpA-TFZg-63" value="&lt;font style=&quot;font-size: 33px;&quot;&gt;&lt;b&gt;A&lt;/b&gt;&lt;/font&gt;" style="text;html=1;align=center;verticalAlign=middle;whiteSpace=wrap;rounded=0;" parent="1" vertex="1">
          <mxGeometry y="32.5" width="60" height="30" as="geometry" />
        </mxCell>
        <mxCell id="syWPXiomNhrmmpA-TFZg-64" value="&lt;font style=&quot;font-size: 33px;&quot;&gt;&lt;b&gt;2&lt;/b&gt;&lt;/font&gt;" style="text;html=1;align=center;verticalAlign=middle;whiteSpace=wrap;rounded=0;" parent="1" vertex="1">
          <mxGeometry y="390" width="60" height="30" as="geometry" />
        </mxCell>
        <mxCell id="syWPXiomNhrmmpA-TFZg-66" value="&lt;font style=&quot;font-size: 33px;&quot;&gt;&lt;b&gt;1&lt;/b&gt;&lt;/font&gt;" style="text;html=1;align=center;verticalAlign=middle;whiteSpace=wrap;rounded=0;" parent="1" vertex="1">
          <mxGeometry y="190" width="60" height="30" as="geometry" />
        </mxCell>
        <mxCell id="syWPXiomNhrmmpA-TFZg-68" value="&lt;font style=&quot;font-size: 33px;&quot;&gt;&lt;b&gt;3&lt;/b&gt;&lt;/font&gt;" style="text;html=1;align=center;verticalAlign=middle;whiteSpace=wrap;rounded=0;" parent="1" vertex="1">
          <mxGeometry y="620" width="60" height="30" as="geometry" />
        </mxCell>
        <mxCell id="syWPXiomNhrmmpA-TFZg-70" value="&lt;font style=&quot;font-size: 33px;&quot;&gt;&lt;b&gt;4&lt;/b&gt;&lt;/font&gt;" style="text;html=1;align=center;verticalAlign=middle;whiteSpace=wrap;rounded=0;" parent="1" vertex="1">
          <mxGeometry y="890" width="60" height="30" as="geometry" />
        </mxCell>
        <mxCell id="syWPXiomNhrmmpA-TFZg-71" value="&lt;font style=&quot;font-size: 33px;&quot;&gt;&lt;b&gt;B&lt;/b&gt;&lt;/font&gt;" style="text;html=1;align=center;verticalAlign=middle;whiteSpace=wrap;rounded=0;" parent="1" vertex="1">
          <mxGeometry y="990" width="60" height="30" as="geometry" />
        </mxCell>
        <mxCell id="syWPXiomNhrmmpA-TFZg-72" value="&lt;font style=&quot;font-size: 33px;&quot;&gt;&lt;b&gt;5&lt;/b&gt;&lt;/font&gt;" style="text;html=1;align=center;verticalAlign=middle;whiteSpace=wrap;rounded=0;" parent="1" vertex="1">
          <mxGeometry y="1085" width="60" height="30" as="geometry" />
        </mxCell>
        <mxCell id="syWPXiomNhrmmpA-TFZg-7" value="&lt;span style=&quot;color: rgb(51, 51, 51);&quot;&gt;&lt;b&gt;&lt;u&gt;0400 Deploy Create Databases Target&lt;/u&gt;&lt;/b&gt;&lt;/span&gt;&lt;div&gt;&lt;div&gt;&lt;font color=&quot;#333333&quot;&gt;01_create_batch_file.py&lt;/font&gt;&lt;/div&gt;&lt;div&gt;&lt;font color=&quot;#333333&quot;&gt;02_execute_batch_file.py&lt;/font&gt;&lt;/div&gt;&lt;/div&gt;" style="rounded=0;whiteSpace=wrap;html=1;fillColor=#f8cecc;strokeColor=#b85450;" parent="1" vertex="1">
          <mxGeometry x="347.5" y="270" width="260" height="70" as="geometry" />
        </mxCell>
        <mxCell id="syWPXiomNhrmmpA-TFZg-89" value="" style="endArrow=none;html=1;rounded=0;" parent="1" edge="1">
          <mxGeometry width="50" height="50" relative="1" as="geometry">
            <mxPoint x="60" y="1240" as="sourcePoint" />
            <mxPoint x="60" y="10" as="targetPoint" />
          </mxGeometry>
        </mxCell>
        <mxCell id="syWPXiomNhrmmpA-TFZg-90" value="" style="endArrow=none;html=1;rounded=0;strokeWidth=2;shadow=1;" parent="1" edge="1">
          <mxGeometry width="50" height="50" relative="1" as="geometry">
            <mxPoint x="85" y="510" as="sourcePoint" />
            <mxPoint x="945" y="510" as="targetPoint" />
          </mxGeometry>
        </mxCell>
        <mxCell id="syWPXiomNhrmmpA-TFZg-91" value="" style="endArrow=none;html=1;rounded=0;strokeWidth=2;shadow=1;" parent="1" edge="1">
          <mxGeometry width="50" height="50" relative="1" as="geometry">
            <mxPoint x="70" y="950" as="sourcePoint" />
            <mxPoint x="930" y="950" as="targetPoint" />
          </mxGeometry>
        </mxCell>
        <mxCell id="syWPXiomNhrmmpA-TFZg-93" value="" style="endArrow=none;html=1;rounded=0;strokeWidth=2;shadow=1;" parent="1" edge="1">
          <mxGeometry width="50" height="50" relative="1" as="geometry">
            <mxPoint x="70" y="1370" as="sourcePoint" />
            <mxPoint x="930" y="1370" as="targetPoint" />
          </mxGeometry>
        </mxCell>
        <mxCell id="syWPXiomNhrmmpA-TFZg-94" value="" style="endArrow=none;html=1;rounded=0;strokeWidth=2;shadow=1;" parent="1" edge="1">
          <mxGeometry width="50" height="50" relative="1" as="geometry">
            <mxPoint x="70" y="1460" as="sourcePoint" />
            <mxPoint x="930" y="1460" as="targetPoint" />
          </mxGeometry>
        </mxCell>
        <mxCell id="syWPXiomNhrmmpA-TFZg-95" value="" style="endArrow=none;html=1;rounded=0;strokeWidth=2;shadow=1;" parent="1" edge="1">
          <mxGeometry width="50" height="50" relative="1" as="geometry">
            <mxPoint x="70" y="1550" as="sourcePoint" />
            <mxPoint x="930" y="1550" as="targetPoint" />
          </mxGeometry>
        </mxCell>
        <mxCell id="syWPXiomNhrmmpA-TFZg-96" value="" style="endArrow=none;html=1;rounded=0;strokeWidth=2;shadow=1;" parent="1" edge="1">
          <mxGeometry width="50" height="50" relative="1" as="geometry">
            <mxPoint x="70" y="1650" as="sourcePoint" />
            <mxPoint x="930" y="1650" as="targetPoint" />
          </mxGeometry>
        </mxCell>
        <mxCell id="rylidvbhO6okRbjTieRh-1" value="" style="endArrow=none;html=1;rounded=0;strokeWidth=2;shadow=1;" parent="1" edge="1">
          <mxGeometry width="50" height="50" relative="1" as="geometry">
            <mxPoint x="60" y="10" as="sourcePoint" />
            <mxPoint x="920" y="10" as="targetPoint" />
          </mxGeometry>
        </mxCell>
        <mxCell id="rylidvbhO6okRbjTieRh-2" value="" style="endArrow=none;html=1;rounded=0;" parent="1" edge="1">
          <mxGeometry width="50" height="50" relative="1" as="geometry">
            <mxPoint x="920" y="1240" as="sourcePoint" />
            <mxPoint x="920" y="10" as="targetPoint" />
          </mxGeometry>
        </mxCell>
        <mxCell id="rylidvbhO6okRbjTieRh-6" style="edgeStyle=orthogonalEdgeStyle;rounded=0;orthogonalLoop=1;jettySize=auto;html=1;entryX=0;entryY=0.75;entryDx=0;entryDy=0;strokeWidth=3;" parent="1" source="syWPXiomNhrmmpA-TFZg-13" target="syWPXiomNhrmmpA-TFZg-14" edge="1">
          <mxGeometry relative="1" as="geometry" />
        </mxCell>
        <mxCell id="HDIBJlZaWyo6-5FCZua_-4" value="SELECT * FROM sourcegen.ddl_scripts_batch_monitor;" style="text;whiteSpace=wrap;fontStyle=1;fontSize=17;" parent="1" vertex="1">
          <mxGeometry x="930" y="384" width="543" height="36" as="geometry" />
        </mxCell>
        <mxCell id="HDIBJlZaWyo6-5FCZua_-6" value="SELECT * FROM targetdeploy.ddl_tables_batch_monitor;" style="text;whiteSpace=wrap;fontStyle=1;fontSize=17;" parent="1" vertex="1">
          <mxGeometry x="930" y="894" width="467" height="36" as="geometry" />
        </mxCell>
        <mxCell id="GBqM-zpvMOJnWf_ZMjJe-1" value="&lt;div&gt;&lt;b style=&quot;&quot;&gt;&lt;font style=&quot;font-size: 36px;&quot;&gt;Verson 2.0 (Bravo)&lt;/font&gt;&lt;/b&gt;&lt;/div&gt;" style="text;html=1;align=left;verticalAlign=middle;whiteSpace=wrap;rounded=0;" parent="1" vertex="1">
          <mxGeometry x="40" y="-60" width="530" height="30" as="geometry" />
        </mxCell>
        <mxCell id="GBqM-zpvMOJnWf_ZMjJe-4" value="" style="endArrow=none;html=1;rounded=0;strokeWidth=2;shadow=1;" parent="1" edge="1">
          <mxGeometry width="50" height="50" relative="1" as="geometry">
            <mxPoint x="70" y="1740" as="sourcePoint" />
            <mxPoint x="930" y="1740" as="targetPoint" />
          </mxGeometry>
        </mxCell>
        <mxCell id="GBqM-zpvMOJnWf_ZMjJe-5" value="&lt;font style=&quot;font-size: 33px;&quot;&gt;&lt;b&gt;6&lt;/b&gt;&lt;/font&gt;" style="text;html=1;align=center;verticalAlign=middle;whiteSpace=wrap;rounded=0;" parent="1" vertex="1">
          <mxGeometry y="1180" width="60" height="30" as="geometry" />
        </mxCell>
        <mxCell id="GBqM-zpvMOJnWf_ZMjJe-7" value="SELECT * FROM targetdeploy.ddl_tableelements_batch_monitor;" style="text;whiteSpace=wrap;fontStyle=1;fontSize=17;" parent="1" vertex="1">
          <mxGeometry x="930" y="1082" width="550" height="36" as="geometry" />
        </mxCell>
        <mxCell id="GBqM-zpvMOJnWf_ZMjJe-8" value="SELECT * FROM targetdeploy.db_dependencies_batch;" style="text;whiteSpace=wrap;fontStyle=1;fontSize=17;" parent="1" vertex="1">
          <mxGeometry x="930" y="1182" width="467" height="36" as="geometry" />
        </mxCell>
        <mxCell id="GBqM-zpvMOJnWf_ZMjJe-9" value="&lt;div&gt;&lt;font size=&quot;1&quot; color=&quot;#333333&quot;&gt;&lt;b style=&quot;font-size: 15px;&quot;&gt;Boxes in green are &lt;u&gt;scalable &lt;/u&gt;processes that can run on &lt;u&gt;multiple &lt;/u&gt;machines.&lt;/b&gt;&lt;/font&gt;&lt;/div&gt;" style="rounded=0;whiteSpace=wrap;html=1;fillColor=#d5e8d4;strokeColor=#82b366;" parent="1" vertex="1">
          <mxGeometry x="85" y="1860" width="635" height="40" as="geometry" />
        </mxCell>
        <mxCell id="GBqM-zpvMOJnWf_ZMjJe-10" value="&lt;h1 style=&quot;margin-top: 0px;&quot;&gt;&lt;font style=&quot;font-size: 42px;&quot; color=&quot;#ff3333&quot;&gt;Notes&lt;/font&gt;&lt;/h1&gt;" style="text;html=1;whiteSpace=wrap;overflow=hidden;rounded=0;" parent="1" vertex="1">
          <mxGeometry x="80" y="1790" width="120" height="50" as="geometry" />
        </mxCell>
        <mxCell id="GBqM-zpvMOJnWf_ZMjJe-12" value="&lt;div&gt;&lt;font size=&quot;1&quot; color=&quot;#333333&quot;&gt;&lt;b style=&quot;font-size: 15px;&quot;&gt;Boxes in red are &lt;u&gt;build &lt;/u&gt;processes that must run from a &lt;u&gt;single &lt;/u&gt;machine.&lt;/b&gt;&lt;/font&gt;&lt;/div&gt;" style="rounded=0;whiteSpace=wrap;html=1;fillColor=#f8cecc;strokeColor=#b85450;" parent="1" vertex="1">
          <mxGeometry x="85" y="1930" width="635" height="40" as="geometry" />
        </mxCell>
        <mxCell id="L2tcZBJ_wmMgp3oUzWPe-1" value="&lt;ul&gt;&lt;li&gt;&lt;b&gt;&lt;font style=&quot;font-size: 17px;&quot;&gt;info.source_target_servers&lt;/font&gt;&lt;/b&gt;&lt;/li&gt;&lt;li&gt;&lt;b&gt;&lt;font style=&quot;font-size: 17px;&quot;&gt;info.login_information&lt;/font&gt;&lt;/b&gt;&lt;/li&gt;&lt;/ul&gt;" style="text;html=1;align=left;verticalAlign=middle;whiteSpace=wrap;rounded=0;" vertex="1" parent="1">
          <mxGeometry x="940" y="42.5" width="213" height="30" as="geometry" />
        </mxCell>
        <mxCell id="L2tcZBJ_wmMgp3oUzWPe-3" value="&lt;span style=&quot;color: rgb(51, 51, 51);&quot;&gt;&lt;b&gt;&lt;u&gt;0200 Create Folder Directories&lt;/u&gt;&lt;/b&gt;&lt;/span&gt;&lt;div&gt;&lt;div&gt;&lt;font color=&quot;#333333&quot;&gt;01_download_batch_file.py&lt;/font&gt;&lt;/div&gt;&lt;div&gt;&lt;font color=&quot;#333333&quot;&gt;02_execute_batch_file.py&lt;/font&gt;&lt;/div&gt;&lt;/div&gt;" style="rounded=0;whiteSpace=wrap;html=1;fillColor=#f8cecc;strokeColor=#b85450;" vertex="1" parent="1">
          <mxGeometry x="98.75" y="270" width="230" height="70" as="geometry" />
        </mxCell>
        <mxCell id="L2tcZBJ_wmMgp3oUzWPe-5" style="edgeStyle=orthogonalEdgeStyle;rounded=0;orthogonalLoop=1;jettySize=auto;html=1;entryX=0.528;entryY=0.028;entryDx=0;entryDy=0;entryPerimeter=0;" edge="1" parent="1" source="syWPXiomNhrmmpA-TFZg-3" target="L2tcZBJ_wmMgp3oUzWPe-3">
          <mxGeometry relative="1" as="geometry" />
        </mxCell>
        <mxCell id="L2tcZBJ_wmMgp3oUzWPe-6" style="edgeStyle=orthogonalEdgeStyle;rounded=0;orthogonalLoop=1;jettySize=auto;html=1;entryX=0.35;entryY=0.06;entryDx=0;entryDy=0;entryPerimeter=0;" edge="1" parent="1" source="syWPXiomNhrmmpA-TFZg-3" target="syWPXiomNhrmmpA-TFZg-7">
          <mxGeometry relative="1" as="geometry" />
        </mxCell>
        <mxCell id="L2tcZBJ_wmMgp3oUzWPe-8" style="edgeStyle=orthogonalEdgeStyle;rounded=0;orthogonalLoop=1;jettySize=auto;html=1;entryX=0.322;entryY=0;entryDx=0;entryDy=0;entryPerimeter=0;" edge="1" parent="1" source="L2tcZBJ_wmMgp3oUzWPe-3" target="syWPXiomNhrmmpA-TFZg-5">
          <mxGeometry relative="1" as="geometry" />
        </mxCell>
      </root>
    </mxGraphModel>
  </diagram>
</mxfile>
